<?xml version='1.0' encoding='utf-8'?>
<!DOCTYPE svg PUBLIC '-//W3C//DTD SVG 1.1//EN' 'http://www.w3.org/Graphics/SVG/1.1/DTD/svg11.dtd'>
<svg version="1.1" xmlns="http://www.w3.org/2000/svg" viewBox="0 0 512 512" xmlns:xlink="http://www.w3.org/1999/xlink" enable-background="new 0 0 512 512">
  <g>
    <g>
      <g>
        <path d="m481.3,17.3c-11,0-19.9,8.9-19.9,19.9v99.4h-87.1v-83.6c0-11-8.9-19.9-19.9-19.9h-212.2c-5.2,0-10.1,2-13.8,5.6l-111.1,107.3c-5.9,5.9-10.5,18.1 3.55271e-15,28.6l111.1,107.3c3.7,3.6 8.7,5.6 13.8,5.6h212.3c11,0 19.9-8.9 19.9-19.9v-91.3h87.1v298.2c0,11 8.9,19.9 19.9,19.9 11,0 19.9-8.9 19.9-19.9v-437.3c-0.1-11-9-19.9-20-19.9zm-146.7,230.5h-184.4l-90.5-87.4 90.5-87.4h184.4v174.8z"/>
        <path d="m143.1,160.3c0,11 8.9,19.9 19.9,19.9h40.3v40.9c0,11 8.9,19.9 19.9,19.9 11,0 19.9-8.9 19.9-19.9v-40.9h40.3c11,0 19.9-8.9 19.9-19.9 0-11-8.9-19.9-19.9-19.9h-40.4v-40.9c0-11-8.9-19.9-19.9-19.9-11,0-19.9,8.9-19.9,19.9v40.9h-40.2c-11,0.1-19.9,9-19.9,19.9z"/>
      </g>
    </g>
  </g>
</svg>
